{"accessors":[{"bufferView":3,"componentType":5126,"count":6368,"max":[131.5080108642578,200.30709838867188,38.362762451171875],"min":[-85.99424743652344,0.30521121621131897,-39.168182373046875],"type":"VEC3"},{"bufferView":3,"byteOffset":76416,"componentType":5126,"count":6368,"max":[0.9996911287307739,0.9999682307243347,0.9999996423721313],"min":[-0.9998541474342346,-0.997595489025116,-0.9999992847442627],"type":"VEC3"},{"bufferView":2,"componentType":5126,"count":6368,"max":[1.0000003576278687,1.000000238418579],"min":[0,0],"type":"VEC2"},{"bufferView":1,"componentType":5125,"count":9552,"max":[6367],"min":[0],"type":"SCALAR"},{"bufferView":5,"componentType":5126,"count":41,"max":[1,0.009994179010391235,0.010000001639127731,0,0.002590279094874859,1,0.00993410125374794,0,0.009936168789863586,0.00442361319437623,1,0,0.7381044030189514,1.2665212154388428,1.2853928804397583,1],"min":[-0.008820642717182636,-0.005934908986091614,-0.009984149597585201,0,-0.002590281656011939,-0.00998634658753872,-0.009994177147746086,0,-0.009999999776482582,-0.004423614125698805,-0.008068041875958443,0,-0.7381042242050171,-1.5402480363845825,-1.2242462635040283,1],"type":"MAT4"},{"bufferView":0,"componentType":5123,"count":6368,"max":[39,39,39,38],"min":[1,1,1,1],"type":"VEC4"},{"bufferView":4,"componentType":5126,"count":6368,"max":[1,0.5,0.3124241828918457,0.22717158496379852],"min":[0.2651003301143646,0,0,0],"type":"VEC4"},{"bufferView":6,"componentType":5126,"count":26,"max":[5.199999809265137],"min":[0.03999999910593033],"type":"SCALAR"},{"bufferView":7,"componentType":5126,"count":26,"max":[-8.526165884426007e-14,0.10919533669948578,2.9802425416392e-8],"min":[-8.5266863014688e-14,0.10919533669948578,2.9802425416392e-8],"type":"VEC3"},{"bufferView":6,"byteOffset":104,"componentType":5126,"count":177,"max":[5.199999809265137],"min":[0.03999999910593033],"type":"SCALAR"},{"bufferView":8,"componentType":5126,"count":177,"max":[0.7483481764793396,0.3600771725177765,0.27592921257019043,0.9441584348678589],"min":[0.3294917941093445,-0.38038134574890137,-0.19311758875846863,0.6013082265853882],"type":"VEC4"},{"bufferView":6,"byteOffset":812,"componentType":5126,"count":126,"max":[3.8399999141693115],"min":[1],"type":"SCALAR"},{"bufferView":8,"byteOffset":2832,"componentType":5126,"count":126,"max":[0.011121556162834167,0.9712179899215698,-0.23642101883888245,0.06619025021791458],"min":[0.005550997797399759,0.7672086954116821,-0.6381032466888428,0.027232570573687553],"type":"VEC4"},{"bufferView":6,"byteOffset":1316,"componentType":5126,"count":125,"max":[3.8399999141693115],"min":[1],"type":"SCALAR"},{"bufferView":8,"byteOffset":4848,"componentType":5126,"count":125,"max":[-0.013449171558022499,0.023836689069867134,-0.05926854908466339,0.9975420236587524],"min":[-0.21725444495677948,0.01735379546880722,-0.0646323561668396,0.9741565585136414],"type":"VEC4"},{"bufferView":6,"byteOffset":1816,"componentType":5126,"count":99,"max":[3.5199999809265137],"min":[1.2000000476837158],"type":"SCALAR"},{"bufferView":8,"byteOffset":6848,"componentType":5126,"count":99,"max":[-0.21930867433547974,-0.023969365283846855,0.05361083894968033,0.9739170074462891],"min":[-0.2860603630542755,-0.0245047714561224,0.05304722115397453,0.9563968181610107],"type":"VEC4"},{"bufferView":6,"byteOffset":2212,"componentType":5126,"count":125,"max":[3.8399999141693115],"min":[1],"type":"SCALAR"},{"bufferView":8,"byteOffset":8432,"componentType":5126,"count":125,"max":[0.6668229103088379,0.19181081652641296,0.49141693115234375,0.8280593752861023],"min":[0.27732914686203003,-0.11182371526956558,0.46749064326286316,0.5480157136917114],"type":"VEC4"},{"bufferView":6,"byteOffset":2712,"componentType":5126,"count":126,"max":[3.8399999141693115],"min":[1],"type":"SCALAR"},{"bufferView":8,"byteOffset":10432,"componentType":5126,"count":126,"max":[-0.006080810911953449,0.9805195331573486,-0.19482509791851044,-0.022937674075365067],"min":[-0.011540438048541546,0.7671831250190735,-0.6380516290664673,-0.0671955943107605],"type":"VEC4"},{"bufferView":6,"byteOffset":3216,"componentType":5126,"count":125,"max":[3.8399999141693115],"min":[1],"type":"SCALAR"},{"bufferView":8,"byteOffset":12448,"componentType":5126,"count":125,"max":[-0.013449226506054401,-0.016560330986976624,0.06462962925434113,0.997540295124054],"min":[-0.24013569951057434,-0.023836633190512657,0.058492813259363174,0.9688305258750916],"type":"VEC4"},{"bufferView":6,"byteOffset":3716,"componentType":5126,"count":99,"max":[3.5199999809265137],"min":[1.2000000476837158],"type":"SCALAR"},{"bufferView":8,"byteOffset":14448,"componentType":5126,"count":99,"max":[-0.21930862963199615,0.02451004646718502,-0.053047213703393936,0.9739170074462891],"min":[-0.28681010007858276,0.023969225585460663,-0.0536157600581646,0.9561718106269836],"type":"VEC4"},{"bufferView":6,"byteOffset":4112,"componentType":5126,"count":125,"max":[3.8399999141693115],"min":[1],"type":"SCALAR"},{"bufferView":8,"byteOffset":16032,"componentType":5126,"count":125,"max":[0.6668254733085632,0.11344266682863235,-0.4674890637397766,0.8288869857788086],"min":[0.274874210357666,-0.1919347643852234,-0.4914170205593109,0.5480166673660278],"type":"VEC4"},{"bufferView":6,"byteOffset":4612,"componentType":5126,"count":33,"max":[3.8399999141693115],"min":[1],"type":"SCALAR"},{"bufferView":7,"byteOffset":312,"componentType":5126,"count":33,"max":[-6.749809045025756e-14,0.2493736296892166,-7.450430938860109e-9],"min":[-6.750502934416147e-14,0.2493736296892166,-7.450431827038528e-9],"type":"VEC3"},{"bufferView":6,"byteOffset":4744,"componentType":5126,"count":99,"max":[3.8399999141693115],"min":[1],"type":"SCALAR"},{"bufferView":8,"byteOffset":18032,"componentType":5126,"count":99,"max":[0.0008465837454423308,-3.032623965282255e-7,2.0377590725928485e-9,1],"min":[-0.2516879141330719,-3.128935475160688e-7,-7.703446414097925e-8,0.9678084254264832],"type":"VEC4"},{"bufferView":6,"byteOffset":5140,"componentType":5126,"count":23,"max":[3.8399999141693115],"min":[1],"type":"SCALAR"},{"bufferView":7,"byteOffset":708,"componentType":5126,"count":23,"max":[7.982538241524395e-13,0.2812656760215759,-9.603898121213206e-9],"min":[7.982468852585356e-13,0.2812656760215759,-9.603898121213206e-9],"type":"VEC3"},{"bufferView":6,"byteOffset":5232,"componentType":5126,"count":99,"max":[3.8399999141693115],"min":[1],"type":"SCALAR"},{"bufferView":8,"byteOffset":19616,"componentType":5126,"count":99,"max":[0.14752507209777832,-0.000002979246119139134,1.814864702964769e-7,1],"min":[-0.09865294396877289,-0.000003032099584743264,-5.636691184918163e-7,0.9890583157539368],"type":"VEC4"},{"bufferView":6,"byteOffset":5628,"componentType":5126,"count":17,"max":[3.8399999141693115],"min":[1],"type":"SCALAR"},{"bufferView":7,"byteOffset":984,"componentType":5126,"count":17,"max":[-5.329035823731232e-13,0.31981897354125977,-8.56817976568891e-8],"min":[-5.329105212670271e-13,0.31981897354125977,-8.56817976568891e-8],"type":"VEC3"},{"bufferView":6,"byteOffset":5696,"componentType":5126,"count":99,"max":[3.8399999141693115],"min":[1],"type":"SCALAR"},{"bufferView":8,"byteOffset":21200,"componentType":5126,"count":99,"max":[0.01882338896393776,0.000006465872957051033,-1.7783001737825543e-7,0.9999999403953552],"min":[-0.0815986841917038,0.00000641539327261853,-8.257494528152165e-7,0.9966652393341064],"type":"VEC4"},{"bufferView":6,"byteOffset":6092,"componentType":5126,"count":44,"max":[2.880000114440918],"min":[2],"type":"SCALAR"},{"bufferView":7,"byteOffset":1188,"componentType":5126,"count":44,"max":[-0.7051506042480469,1.332432830736252e-8,1.080471396446228],"min":[-0.7473359107971191,-0.02726805955171585,1.074710488319397],"type":"VEC3"}],"animations":[{"channels":[{"sampler":0,"target":{"node":18,"path":"translation"}},{"sampler":1,"target":{"node":18,"path":"rotation"}},{"sampler":2,"target":{"node":25,"path":"rotation"}},{"sampler":3,"target":{"node":24,"path":"rotation"}},{"sampler":4,"target":{"node":23,"path":"rotation"}},{"sampler":5,"target":{"node":22,"path":"rotation"}},{"sampler":6,"target":{"node":31,"path":"rotation"}},{"sampler":7,"target":{"node":30,"path":"rotation"}},{"sampler":8,"target":{"node":29,"path":"rotation"}},{"sampler":9,"target":{"node":28,"path":"rotation"}},{"sampler":10,"target":{"node":15,"path":"translation"}},{"sampler":11,"target":{"node":15,"path":"rotation"}},{"sampler":12,"target":{"node":14,"path":"translation"}},{"sampler":13,"target":{"node":14,"path":"rotation"}},{"sampler":14,"target":{"node":13,"path":"translation"}},{"sampler":15,"target":{"node":13,"path":"rotation"}},{"sampler":16,"target":{"node":11,"path":"translation"}}],"name":"Scene","samplers":[{"input":7,"interpolation":"LINEAR","output":8},{"input":9,"interpolation":"LINEAR","output":10},{"input":11,"interpolation":"LINEAR","output":12},{"input":13,"interpolation":"LINEAR","output":14},{"input":15,"interpolation":"LINEAR","output":16},{"input":17,"interpolation":"LINEAR","output":18},{"input":19,"interpolation":"LINEAR","output":20},{"input":21,"interpolation":"LINEAR","output":22},{"input":23,"interpolation":"LINEAR","output":24},{"input":25,"interpolation":"LINEAR","output":26},{"input":27,"interpolation":"LINEAR","output":28},{"input":29,"interpolation":"LINEAR","output":30},{"input":31,"interpolation":"LINEAR","output":32},{"input":33,"interpolation":"LINEAR","output":34},{"input":35,"interpolation":"LINEAR","output":36},{"input":37,"interpolation":"LINEAR","output":38},{"input":39,"interpolation":"LINEAR","output":40}]}],"asset":{"extras":{"author":"hylsh1314 (https://sketchfab.com/hylsh1314)","license":"CC-BY-4.0 (http://creativecommons.org/licenses/by/4.0/)","source":"https://sketchfab.com/3d-models/low-poly-bulldog-simple-motion-3ca11f47887a4253bde5b629ce139066","title":"Low Poly Bulldog simple motion"},"generator":"Sketchfab-8.25.0","version":"2.0"},"bufferViews":[{"buffer":0,"byteLength":50944,"byteOffset":0,"byteStride":8,"name":"shortBufferViews","target":34962},{"buffer":0,"byteLength":38208,"byteOffset":50944,"name":"floatBufferViews","target":34963},{"buffer":0,"byteLength":50944,"byteOffset":89152,"byteStride":8,"name":"floatBufferViews","target":34962},{"buffer":0,"byteLength":152832,"byteOffset":140096,"byteStride":12,"name":"floatBufferViews","target":34962},{"buffer":0,"byteLength":101888,"byteOffset":292928,"byteStride":16,"name":"floatBufferViews","target":34962},{"buffer":0,"byteLength":2624,"byteOffset":394816,"byteStride":64,"name":"floatBufferViews"},{"buffer":0,"byteLength":6268,"byteOffset":397440,"name":"floatBufferViews"},{"buffer":0,"byteLength":1716,"byteOffset":403708,"byteStride":12,"name":"floatBufferViews"},{"buffer":0,"byteLength":22784,"byteOffset":405424,"byteStride":16,"name":"floatBufferViews"}],"buffers":[{"byteLength":428208,"uri":"data:application/octet-stream;base64,"}],"materials":[{"doubleSided":true,"emissiveFactor":[0,0,0],"name":"Material.001","pbrMetallicRoughness":{"baseColorFactor":[1,0.320197,0.0684232,1],"metallicFactor":0,"roughnessFactor":0.8991728962852468}}],"meshes":[{"name":"Plane_Material.001_0","primitives":[{"attributes":{"JOINTS_0":5,"NORMAL":1,"POSITION":0,"TEXCOORD_0":2,"WEIGHTS_0":6},"indices":3,"material":0,"mode":4}]}],"nodes":[{"children":[1],"name":"RootNode (gltf orientation matrix)","rotation":[-0.7071067811865475,0,0,0.7071067811865476]},{"children":[2],"name":"RootNode (model correction matrix)"},{"children":[3],"matrix":[1,0,0,0,0,0,1,0,0,-1,0,0,0,0,0,1],"name":"614900333aed4d579a342bbb00a23774.fbx"},{"children":[4],"name":""},{"children":[5,6],"name":"RootNode"},{"name":"Plane","rotation":[-0.7071068286895752,0,0,0.7071067094802856],"scale":[100,100,100],"translation":[10.975902557373047,87.00833129882812,-0.4027023911476135]},{"children":[7],"name":"metarig","rotation":[-0.7071068286895752,0,0,0.7071067094802856],"scale":[100,100,100]},{"children":[8,10,9],"name":""},{"children":[11],"name":"_rootJoint"},{"matrix":[99.99999839795895,-0.000003364960015517227,-1.5987211554602258e-12,0,-1.598721186890172e-12,-1.7151239615294235e-13,-100.00000000290564,0,0.0000033649601718252824,100.00000304312717,-1.7151245516363034e-13,0,10.975900273604623,87.00832662994412,-0.4027024041333007,1],"name":""},{"mesh":0,"name":"","skin":0},{"children":[12],"name":"spine.004_01","rotation":[0.6762280464172363,0.6762290000915527,0.20667780935764313,0.20667432248592377],"scale":[1,0.9999997615814209,0.9999999403953552],"translation":[-0.7051506042480469,1.332432830736252e-8,1.074710488319397]},{"children":[13,37,39,41,46],"name":"spine.005_02","rotation":[0.3852514922618866,-0.000004425156930665253,1.8096591247740434e-7,0.9228116273880005],"scale":[1,0.9999998807907104,0.9999998807907104],"translation":[-1.1013412404281553e-13,0.14674422144889832,5.96047158296642e-8]},{"children":[14],"name":"spine.006_03","rotation":[-0.0815986916422844,0.000006465872957051033,-1.7783000316740072e-7,0.9966652393341064],"translation":[-5.329070518200751e-13,0.31981897354125977,-8.56817976568891e-8]},{"children":[15],"name":"spine.007_04","rotation":[-0.09865294396877289,-0.000002979246119139134,-5.636691184918163e-7,0.9951218962669373],"translation":[7.982503547054876e-13,0.2812656760215759,-9.603898121213206e-9]},{"children":[16,21,27,33,35],"name":"spine.008_05","rotation":[0.0008465837454423308,-3.128869252577715e-7,2.0377590725928485e-9,0.9999996423721313],"scale":[1,1,0.9999999403953552],"translation":[-6.750155989720952e-14,0.2493736296892166,-7.4504313829493185e-9]},{"children":[17],"name":"spine.009_06","rotation":[-0.37103182077407837,-0.0000015035860769785359,-1.451681157504936e-7,0.9286201596260071],"translation":[-1.7053025658242404e-13,0.5062857866287231,1.490132639503372e-8]},{"children":[18],"name":"spine.010_07","rotation":[-0.1944941133260727,0.0000013226124337961664,-4.006870923944916e-8,0.980903685092926],"translation":[-1.545430450278218e-13,0.1397903561592102,-1.4901234024478072e-8]},{"children":[19],"name":"spine.011_08","rotation":[0.3294917941093445,2.2609728489442205e-7,5.533391913559171e-7,0.9441584348678589],"scale":[1,1.0000001192092896,1.0000001192092896],"translation":[-8.526512829121202e-14,0.10919533669948578,2.9802425416392e-8]},{"children":[20],"name":"face_09","rotation":[-0.44798576831817627,-7.88907527748961e-7,-4.960102160112001e-7,0.8940407037734985],"scale":[1,1,1.0000001192092896],"translation":[0.05185317620635033,0.35442590713500977,0.11875902861356735]},{"name":"face_end_031","rotation":[-1.5637108519043932e-23,-6.617444900424222e-24,0,1],"translation":[0,0.11687219142913818,0]},{"children":[22],"name":"shoulder.L_010","rotation":[0.1439332813024521,0.34306398034095764,-0.38328903913497925,0.8453873991966248],"scale":[0.9999998807907104,0.9999999403953552,1],"translation":[0.1128942221403122,0.36473560333251953,0.12450333684682846]},{"children":[23],"name":"front_thigh.L_011","rotation":[0.6664061546325684,0.19241559505462646,0.46800291538238525,0.5475877523422241],"scale":[1,1.0000001192092896,1],"translation":[0.0038703903555870056,0.1607789397239685,0.003826923668384552]},{"children":[24],"name":"front_shin.L_012","rotation":[-0.21931050717830658,-0.023969367146492004,0.05304722115397453,0.9739171266555786],"scale":[1.0000001192092896,1,1],"translation":[-1.30385160446167e-8,0.5113955140113831,-4.263165465090424e-8]},{"children":[25],"name":"front_foot.L_013","rotation":[-0.01344961579889059,0.023836445063352585,-0.06461382657289505,0.9975350499153137],"scale":[1,1.0000001192092896,1.0000001192092896],"translation":[-1.210719347000122e-8,0.296871155500412,5.681067705154419e-8]},{"children":[26],"name":"front_toe.L_014","rotation":[0.009110304526984692,0.7671520709991455,-0.6377487182617188,0.06834658980369568],"scale":[1,0.9999999403953552,0.9999999403953552],"translation":[-3.1082890927791595e-8,0.2656102478504181,4.423782229423523e-9]},{"name":"front_toe.L_end_032","rotation":[1.9782454483124184e-18,-1.5094127120071632e-18,1.3877787807814457e-17,1],"translation":[-2.7755575615628914e-17,0.17629192769527435,1.3877787807814457e-17]},{"children":[28],"name":"shoulder.R_015","rotation":[0.1439322531223297,-0.343065470457077,0.38328954577445984,0.8453867435455322],"scale":[1,1,1.0000001192092896],"translation":[-0.11289481818675995,0.36473554372787476,0.12450282275676727]},{"children":[29],"name":"front_thigh.R_016","rotation":[0.6664063334465027,-0.19241578876972198,-0.46800264716148376,0.5475876927375793],"scale":[0.9999999403953552,0.9999999403953552,0.9999998211860657],"translation":[-0.003870368003845215,0.16077890992164612,0.0038269534707069397]},{"children":[30],"name":"front_shin.R_017","rotation":[-0.21931049227714539,0.02396923303604126,-0.05304722115397453,0.9739171266555786],"scale":[1,0.9999999403953552,0.9999998807907104],"translation":[-3.259629011154175e-8,0.5113954544067383,-5.8409568737261e-8]},{"children":[31],"name":"front_foot.R_018","rotation":[-0.013449606485664845,-0.023836424574255943,0.06461380422115326,0.9975350499153137],"scale":[0.9999999403953552,1,1.0000001192092896],"translation":[2.421438694000244e-8,0.2968711853027344,6.239861249923706e-8]},{"children":[32],"name":"front_toe.R_019","rotation":[-0.009109677746891975,0.7671522498130798,-0.6377487182617188,-0.06834665685892105],"scale":[0.9999999403953552,1,0.9999998211860657],"translation":[-1.2441887520253658e-8,0.2656102776527405,-6.030313670635223e-8]},{"name":"front_toe.R_end_033","rotation":[1.8678558794615018e-17,1.9253058891090247e-18,2.0816681711721685e-17,1],"translation":[-2.7755575615628914e-17,0.17629192769527435,0]},{"children":[34],"name":"breast.L_00","rotation":[0.4457278847694397,-7.641694423909939e-7,5.541077712223341e-7,0.8951684832572937],"scale":[1,0.9999999403953552,1],"translation":[0.06440306454896927,0.2011394053697586,-0.10492777079343796]},{"name":"breast.L_end_034","rotation":[1.1036231324973307e-17,2.921272895593303e-40,2.6469779601696886e-23,1],"translation":[0,0.3784816265106201,0]},{"children":[36],"name":"breast.R_020","rotation":[0.4457278847694397,-7.641694423909939e-7,5.541077712223341e-7,0.8951684832572937],"scale":[1,0.9999999403953552,1],"translation":[-0.064402736723423,0.201139435172081,-0.10492805391550064]},{"name":"breast.R_end_035","rotation":[1.1036231324973307e-17,2.921272895593303e-40,2.6469779601696886e-23,1],"translation":[0,0.3784816265106201,2.220446049250313e-16]},{"children":[38],"name":"pelvis.L_021","rotation":[0.460796982049942,0.735920250415802,-0.39393800497055054,-0.3014969527721405],"scale":[1.0000001192092896,1.0000003576278687,1],"translation":[0.000001191419642054825,0.057298436760902405,0.2939150035381317]},{"name":"pelvis.L_end_036","rotation":[-5.551115123125783e-17,-2.311115933264683e-33,4.163336342344337e-17,1],"translation":[0,0.3228064179420471,0]},{"children":[40],"name":"pelvis.R_022","rotation":[-0.4607986807823181,0.7359213829040527,-0.3939362168312073,0.30149391293525696],"scale":[1.0000001192092896,1.0000001192092896,1],"translation":[0.0000012413100876074168,0.057298436760902405,0.2939150035381317]},{"name":"pelvis.R_end_037","rotation":[-2.7755575615628914e-17,0,0,1],"translation":[0,0.3228064179420471,0]},{"children":[42],"name":"thigh.L_023","rotation":[0.5810536742210388,0.05048821121454239,-0.07797970622777939,0.8085461854934692],"scale":[0.9999999403953552,1,1],"translation":[0.23658640682697296,0.07713408768177032,0.13260750472545624]},{"children":[43],"name":"shin.L_024","rotation":[0.3722151815891266,0.025288773700594902,0.1108149066567421,0.9211603403091431],"scale":[1.0000001192092896,0.9999998807907104,1],"translation":[-7.450580596923828e-9,0.28253400325775146,-1.816079020500183e-8]},{"children":[44],"name":"foot.L_025","rotation":[-0.22013065218925476,0.008279085159301758,-0.04629503935575485,0.9743361473083496],"scale":[1,0.9999998807907104,0.9999998211860657],"translation":[1.6763806343078613e-8,0.43118801712989807,-9.534414857625961e-8]},{"children":[45],"name":"toe.L_026","rotation":[0.16998356580734253,-0.6567726731300354,0.7200069427490234,0.1461002379655838],"scale":[1,0.9999996423721313,0.9999998211860657],"translation":[1.862645149230957e-9,0.35258248448371887,-5.3085386753082275e-8]},{"name":"toe.L_end_038","rotation":[-8.673617379884035e-19,-1.734723475976807e-18,-2.7755575615628914e-17,1],"translation":[5.551115123125783e-17,0.1573478877544403,6.938893903907228e-18]},{"children":[47],"name":"thigh.R_027","rotation":[0.5810539126396179,-0.050484731793403625,0.0779772698879242,0.8085464835166931],"scale":[0.9999999403953552,1,1],"translation":[-0.2365853637456894,0.07713399827480316,0.13260947167873383]},{"children":[48],"name":"shin.R_028","rotation":[0.37221527099609375,-0.025289054960012436,-0.11081503331661224,0.9211602807044983],"scale":[1,0.9999999403953552,0.9999998211860657],"translation":[-5.587935447692871e-9,0.2825339436531067,-1.4435499906539917e-8]},{"children":[49],"name":"foot.R_029","rotation":[-0.22013072669506073,-0.008278830908238888,0.046295128762722015,0.9743360280990601],"scale":[1,0.9999999403953552,1],"translation":[-1.6763806343078613e-8,0.43118804693222046,-1.157168298959732e-7]},{"children":[50],"name":"toe.R_030","rotation":[-0.16998344659805298,-0.656772792339325,0.7200068235397339,-0.14610019326210022],"scale":[0.9999998807907104,0.9999997019767761,0.9999999403953552],"translation":[4.6566128730773926e-9,0.35258254408836365,-8.975621312856674e-8]},{"name":"toe.R_end_039","rotation":[4.333342374871281e-34,-5.204170427930421e-18,8.326672684688674e-17,1],"translation":[2.7755575615628914e-17,0.1573478877544403,-6.938893903907228e-18]}],"scene":0,"scenes":[{"name":"OSG_Scene","nodes":[0]}],"skins":[{"inverseBindMatrices":4,"joints":[8,11,12,13,14,15,16,17,18,19,20,21,22,23,24,25,26,27,28,29,30,31,32,33,34,35,36,37,38,39,40,41,42,43,44,45,46,47,48,49,50],"skeleton":8}]}